<?xml version="1.0" encoding="utf-8"?>
<!-- Generator: Adobe Illustrator 18.1.1, SVG Export Plug-In . SVG Version: 6.00 Build 0)  -->
<svg version="1.1" id="Layer_1" xmlns="http://www.w3.org/2000/svg" xmlns:xlink="http://www.w3.org/1999/xlink" x="0px" y="0px"
	 viewBox="0 0 117.2 62.6" enable-background="new 0 0 117.2 62.6" xml:space="preserve">
<g>
	<path fill="#A0A1A7" d="M10.1,41c0.4,0.8,1,1.4,1.7,1.9c0.7,0.5,1.5,0.9,2.4,1.1c0.9,0.2,1.9,0.4,2.8,0.4c0.7,0,1.4-0.1,2.2-0.2
		c0.8-0.2,1.5-0.4,2.1-0.8s1.2-0.8,1.6-1.4c0.4-0.6,0.6-1.3,0.6-2.2c0-1.5-1-2.6-3-3.4c-2-0.7-4.7-1.5-8.3-2.2
		c-1.4-0.3-2.9-0.7-4.2-1.2c-1.4-0.4-2.6-1-3.7-1.8c-1.1-0.7-1.9-1.6-2.6-2.7c-0.7-1.1-1-2.4-1-4c0-2.3,0.5-4.2,1.4-5.7
		c0.9-1.5,2.1-2.7,3.6-3.5c1.5-0.9,3.2-1.5,5-1.8c1.9-0.4,3.8-0.5,5.7-0.5s3.9,0.2,5.7,0.6c1.8,0.4,3.5,1,4.9,1.9
		c1.4,0.9,2.6,2.1,3.6,3.5c1,1.5,1.5,3.3,1.7,5.6h-9.5c-0.1-1.9-0.9-3.2-2.2-3.9c-1.3-0.7-2.8-1-4.6-1c-0.6,0-1.2,0-1.8,0.1
		c-0.7,0.1-1.2,0.2-1.8,0.5c-0.5,0.2-1,0.6-1.4,1c-0.4,0.4-0.6,1-0.6,1.8c0,0.9,0.3,1.6,1,2.2c0.7,0.6,1.5,1,2.6,1.4
		c1,0.4,2.3,0.7,3.6,0.9c1.4,0.3,2.7,0.6,4.1,0.9c1.4,0.3,2.9,0.7,4.2,1.2c1.4,0.5,2.6,1.1,3.7,1.9c1.1,0.8,1.9,1.7,2.6,2.9
		c0.7,1.1,1,2.6,1,4.2c0,2.4-0.5,4.4-1.4,6c-1,1.6-2.2,2.9-3.7,3.9s-3.3,1.7-5.3,2.1c-2,0.4-4,0.6-6.1,0.6c-2.1,0-4.2-0.2-6.2-0.6
		c-2-0.4-3.8-1.1-5.4-2.1c-1.6-1-2.8-2.3-3.9-3.9c-1-1.6-1.6-3.6-1.6-6.1h9.5C9.5,39.3,9.7,40.2,10.1,41z"/>
	<path fill="#A0A1A7" d="M42.6,0v18.8h0.2c1.3-2.1,2.9-3.6,4.8-4.6c2-1,3.9-1.4,5.7-1.4c2.7,0,4.8,0.4,6.5,1.1c1.7,0.7,3,1.7,4,3
		c1,1.3,1.7,2.8,2.1,4.7c0.4,1.8,0.6,3.9,0.6,6.1V50h-9.9V29.5c0-3-0.5-5.2-1.4-6.7c-0.9-1.5-2.6-2.2-5-2.2c-2.7,0-4.7,0.8-5.9,2.4
		c-1.2,1.6-1.8,4.3-1.8,7.9v19h-9.9V0H42.6z"/>
	<path fill="#A0A1A7" d="M89.8,13.8v4.6h0.1c1.2-2,2.8-3.4,4.6-4.3c1.9-0.9,3.9-1.3,6.2-1.3c2.8,0,5.3,0.5,7.3,1.6
		c2.1,1.1,3.8,2.5,5.1,4.3c1.4,1.8,2.4,3.8,3,6.2c0.7,2.4,1,4.8,1,7.4c0,2.4-0.3,4.8-1,7c-0.7,2.2-1.6,4.2-3,6c-1.3,1.7-3,3.1-5,4.1
		s-4.3,1.5-7,1.5c-2.2,0-4.3-0.5-6.2-1.4c-1.9-0.9-3.4-2.3-4.7-4h-0.1v17.1h-9.9V13.8H89.8z M102.7,42.5c1.1-0.7,2-1.5,2.7-2.6
		c0.7-1.1,1.2-2.3,1.4-3.7c0.3-1.4,0.4-2.8,0.4-4.3c0-1.4-0.2-2.9-0.5-4.3c-0.3-1.4-0.8-2.6-1.5-3.7c-0.7-1.1-1.6-2-2.7-2.7
		c-1.1-0.7-2.4-1-4-1c-1.6,0-3,0.3-4.1,1c-1.1,0.7-2,1.6-2.7,2.6c-0.7,1.1-1.2,2.3-1.4,3.7s-0.4,2.8-0.4,4.3c0,1.4,0.2,2.9,0.5,4.3
		c0.3,1.4,0.8,2.6,1.5,3.7c0.7,1,1.6,1.9,2.7,2.6c1.1,0.7,2.5,1,4.1,1C100.3,43.5,101.6,43.1,102.7,42.5z"/>
</g>
<circle fill="#FFFFFF" cx="73.1" cy="32.5" r="12.7"/>
<g>
	<path fill="#A0A1A7" d="M73.4,39h-0.5v-5.5h-5.4V33h5.4v-5.5h0.5V33h5.3v0.5h-5.3V39z"/>
</g>
</svg>
